# xmcd
#
# Track frame offsets: 
#        150
#        21215
#        35595
#        52308
#        66564
#        88567
#        106708
#        122055
#        144154
#        161892
#        174263
#        195861
#
# Disc length: 2788 seconds
#
# Revision: 0
# Processed by: cddbd v1.5.1PL2 Copyright (c) Steve Scherf et al.
# Submitted via: ExactAudioCopy v0.95b3
#
DISCID=9f0ae20c
DTITLE=Boddie Powell and Borderline - 4104
DYEAR=2003
DGENRE=Country
TTITLE0=4101
TTITLE1=If Her Lips Are Movin
TTITLE2=More Than Texas
TTITLE3=Texas Music Nation
TTITLE4=Texas Tea
TTITLE5=Once In A Blue Moon
TTITLE6=Next Exit Sign
TTITLE7=She Stomped On My Heart Again
TTITLE8=Third Street Prophet
TTITLE9=Dirt´s Nervous Breakdown
TTITLE10=Love Whipped
TTITLE11=Pissin On My Legs
EXTD=
EXTT0=
EXTT1=
EXTT2=
EXTT3=
EXTT4=
EXTT5=
EXTT6=
EXTT7=
EXTT8=
EXTT9=
EXTT10=
EXTT11=
PLAYORDER=
